# xmcd
#
# Track frame offsets: 
#        150
#        23470
#        39175
#        62617
#        82646
#        99752
#        126971
#        147555
#        171982
#        194328
#        216558
#
# Disc length: 3179 seconds
#
# Revision: 0
# Processed by: cddbd v1.5.2PL0 Copyright (c) Steve Scherf et al.
# Submitted via: ExactAudioCopy v1.0b4
#
DISCID=8d0c690b
DTITLE=Joey Gilmore Band - Respect The Blues
DYEAR=2016
DGENRE=Blues
TTITLE0=Man Of My Word
TTITLE1=Can't Kill Nothin'
TTITLE2=Brownskin Woman
TTITLE3=Livin' A Lie
TTITLE4=A Little Love (Always Makes It Bettah)
TTITLE5=Breakin' Up Somebody's Home
TTITLE6=This Time I'm Gone For Good
TTITLE7=Chain Of Fools
TTITLE8=Room 244
TTITLE9=Soul Survivor
TTITLE10=Night Time Is The Right Time
EXTD=
EXTT0=
EXTT1=
EXTT2=
EXTT3=
EXTT4=
EXTT5=
EXTT6=
EXTT7=
EXTT8=
EXTT9=
EXTT10=
PLAYORDER=
